# xmcd
#
# Track frame offsets:
#	150
#	2094
#	66228
#	115134
#	132145
#	150160
#	165031
#	197445
#	235636
#	262060
#	287160
#
# Disc length: 4380 seconds
#
# Revision: 2
# Processed by: cddbd v1.5.2PL0 Copyright (c) Steve Scherf et al.
# Submitted via: EasyCDDAExtractor 11.5.0.1
#
DISCID=82111a0b
DTITLE=Юрий Наумов - Рожден Чтоб Играть CD 2
DYEAR=2005
DGENRE=Blues
TTITLE0=Интро
TTITLE1=Азиатская Месса
TTITLE2=Этой Ночью
TTITLE3=Звездная Ночь
TTITLE4=Никак Не Похоже На Блюз
TTITLE5=Ночной Полет (I)
TTITLE6=Ночной Полет (II)
TTITLE7=Бэйби-Блюз
TTITLE8=Сказка о Карле
TTITLE9=Нью-Йорк, 5-я Авеню
TTITLE10=Театр Станиславского
EXTD=YEAR: 2005
EXTT0=
EXTT1=
EXTT2=
EXTT3=
EXTT4=
EXTT5=
EXTT6=
EXTT7=
EXTT8=
EXTT9=
EXTT10=
PLAYORDER=
